<svg xmlns="http://www.w3.org/2000/svg" xmlns:xlink="http://www.w3.org/1999/xlink" width="0" height="0" style="position:absolute">
	
		<symbol id="angle" viewBox="0 0 9 16">
			<path d="M1.008 1l7.515 7.476L1.001 16l.001-1.19L1 12.644l4.164-4.166L1 4.326v-2.16L1.008 1z" fill="currentColor" stroke="currentColor" stroke-width=".25" fill-rule="evenodd"></path>
		</symbol>
	
		<symbol id="calendar" viewBox="0 0 20 20">
			<title>Fill 1</title><path d="M17.708 18.75H2.292a1.043 1.043 0 0 1-1.042-1.042V7.917h17.5v9.791c0 .574-.468 1.042-1.042 1.042M2.292 2.917h1.875v1.458a.625.625 0 0 0 1.25 0V2.917h9.166v1.458a.625.625 0 0 0 1.25 0V2.917h1.875c.574 0 1.042.467 1.042 1.041v2.709H1.25V3.958c0-.574.468-1.041 1.042-1.041m15.416-1.25h-1.875V.625a.625.625 0 0 0-1.25 0v1.042H5.417V.625a.625.625 0 0 0-1.25 0v1.042H2.292A2.294 2.294 0 0 0 0 3.958v13.75A2.294 2.294 0 0 0 2.292 20h15.416A2.294 2.294 0 0 0 20 17.708V3.958a2.294 2.294 0 0 0-2.292-2.291" fill="#434244" fill-rule="evenodd"></path>
		</symbol>
	
		<symbol id="linkedin" viewBox="0 0 13 13">
			<path d="M9.609 3.974c2.894 0 3.284 2.097 3.284 4.148v4.538a.207.207 0 0 1-.206.207h-2.565a.207.207 0 0 1-.207-.207V8.637c0-1.126-.083-1.987-1.127-1.987-.96 0-1.334.537-1.334 1.916v4.094a.207.207 0 0 1-.206.207H4.684a.207.207 0 0 1-.207-.207V4.386c0-.114.093-.206.207-.206h2.46c.115 0 .207.092.207.206v.538c.463-.505 1.226-.95 2.258-.95zm-6.536.206c.114 0 .206.092.206.206v8.274a.207.207 0 0 1-.206.207H.503a.207.207 0 0 1-.206-.207V4.386c0-.114.092-.206.206-.206zM1.789.067a1.698 1.698 0 0 1 0 3.395 1.699 1.699 0 0 1 0-3.395z" fill="currentColor" fill-rule="evenodd"></path>
		</symbol>
	
		<symbol id="plus" viewBox="0 0 24 24">
			<path d="M12.5 2v20m9.5-9.5H2" stroke="currentColor" stroke-width="3" fill="none" fill-rule="evenodd" stroke-linecap="square"></path>
		</symbol>
	
		<symbol id="question" viewBox="0 0 384 512">
			<path fill="currentColor" d="M202.021 0C122.202 0 70.503 32.703 29.914 91.026c-7.363 10.58-5.093 25.086 5.178 32.874l43.138 32.709c10.373 7.865 25.132 6.026 33.253-4.148 25.049-31.381 43.63-49.449 82.757-49.449 30.764 0 68.816 19.799 68.816 49.631 0 22.552-18.617 34.134-48.993 51.164-35.423 19.86-82.299 44.576-82.299 106.405V320c0 13.255 10.745 24 24 24h72.471c13.255 0 24-10.745 24-24v-5.773c0-42.86 125.268-44.645 125.268-160.627C377.504 66.256 286.902 0 202.021 0zM192 373.459c-38.196 0-69.271 31.075-69.271 69.271 0 38.195 31.075 69.27 69.271 69.27s69.271-31.075 69.271-69.271-31.075-69.27-69.271-69.27z"></path>
		</symbol>
	
		<symbol id="signal" viewBox="0 0 313 315">
			<path d="M61.2 314.2c-.8 0-1.6-.2-2.4-.6-1.6-.8-2.6-2.4-2.7-4.2l-4-51.1c-16.8-12.8-29.8-29.2-38.8-49C4.5 189.8 0 168.1 0 144.7 0 64.9 70.2 0 156.4 0s156.4 64.9 156.4 144.7c0 79.8-70.2 144.7-156.4 144.7-14.3 0-28.5-1.8-42.2-5.4l-50.4 29.4c-.8.6-1.7.8-2.6.8"></path>
		</symbol>
	
		<symbol id="twitter" viewBox="0 0 16 13">
			<path d="M15.82 1.649a6.734 6.734 0 0 1-1.86.51c.67-.4 1.18-1.028 1.42-1.785a6.454 6.454 0 0 1-2.048.781 3.229 3.229 0 0 0-5.587 2.208c0 .257.022.503.076.737A9.142 9.142 0 0 1 1.164.722a3.234 3.234 0 0 0 .992 4.317 3.19 3.19 0 0 1-1.46-.398v.035c0 1.57 1.12 2.873 2.588 3.174-.263.072-.549.106-.846.106-.207 0-.416-.012-.612-.055a3.26 3.26 0 0 0 3.018 2.25A6.49 6.49 0 0 1 .84 11.528a6.05 6.05 0 0 1-.773-.044 9.092 9.092 0 0 0 4.954 1.45c5.943 0 9.193-4.924 9.193-9.191 0-.143-.005-.28-.012-.418A6.443 6.443 0 0 0 15.82 1.65" fill="currentColor" fill-rule="evenodd"></path>
		</symbol>
	
</svg>
