<?xml version="1.0" encoding="UTF-8"?>
<svg width="20px" height="20px" viewBox="0 0 20 20" version="1.1" xmlns="http://www.w3.org/2000/svg" xmlns:xlink="http://www.w3.org/1999/xlink">
    <!-- Generator: Sketch 61.2 (89653) - https://sketch.com -->
    <title>Fill 1</title>
    <desc>Created with Sketch.</desc>
    <g id="news" stroke="none" stroke-width="1" fill="none" fill-rule="evenodd">
        <g id="news-desktop" transform="translate(-430.000000, -710.000000)" fill="#434244">
            <g id="news-&amp;-eveents" transform="translate(0.000000, 598.000000)">
                <g id="1" transform="translate(80.000000, 92.000000)">
                    <path d="M367.708281,38.75 L352.291719,38.75 C351.717539,38.75 351.25,38.2824609 351.25,37.7082812 L351.25,27.9167188 L368.75,27.9167188 L368.75,37.7082812 C368.75,38.2824609 368.282461,38.75 367.708281,38.75 M352.291719,22.9167188 L354.166719,22.9167188 L354.166719,24.375 C354.166719,24.72 354.446719,25 354.791719,25 C355.136719,25 355.416719,24.72 355.416719,24.375 L355.416719,22.9167188 L364.583281,22.9167188 L364.583281,24.375 C364.583281,24.72 364.863281,25 365.208281,25 C365.553281,25 365.833281,24.72 365.833281,24.375 L365.833281,22.9167188 L367.708281,22.9167188 C368.282461,22.9167188 368.75,23.3841016 368.75,23.9582812 L368.75,26.6667188 L351.25,26.6667188 L351.25,23.9582812 C351.25,23.3841016 351.717539,22.9167188 352.291719,22.9167188 M367.708281,21.6667188 L365.833281,21.6667188 L365.833281,20.625 C365.833281,20.28 365.553281,20 365.208281,20 C364.863281,20 364.583281,20.28 364.583281,20.625 L364.583281,21.6667188 L355.416719,21.6667188 L355.416719,20.625 C355.416719,20.28 355.136719,20 354.791719,20 C354.446719,20 354.166719,20.28 354.166719,20.625 L354.166719,21.6667188 L352.291719,21.6667188 C351.027539,21.6667188 350,22.6941016 350,23.9582812 L350,37.7082812 C350,38.9724609 351.027539,40 352.291719,40 L367.708281,40 C368.972461,40 370,38.9724609 370,37.7082812 L370,23.9582812 C370,22.6941016 368.972461,21.6667188 367.708281,21.6667188" id="Fill-1"></path>
                </g>
            </g>
        </g>
    </g>
</svg>