<svg viewBox="0 0 13 13" xmlns:xlink="http://www.w3.org/1999/xlink">
  <path d="M20.6088555,12.9739063 C23.5030987,12.9739063 23.8933333,15.0706558 23.8933333,17.1217204 L23.8933333,17.1217204 L23.8933333,21.6597601 C23.8933333,21.7740553 23.8009257,21.8666667 23.6868819,21.8666667 L23.6868819,21.8666667 L21.1219287,21.8666667 C21.0078849,21.8666667 20.9154772,21.7740553 20.9154772,21.6597601 L20.9154772,21.6597601 L20.9154772,17.6373315 C20.9154772,16.5110978 20.8324424,15.6496217 19.7875089,15.6496217 C18.8281289,15.6496217 18.4542865,16.1869994 18.4542865,17.5663625 L18.4542865,17.5663625 L18.4542865,21.6597187 C18.4542865,21.7740139 18.3618788,21.8666667 18.247835,21.8666667 L18.247835,21.8666667 L15.6838315,21.8666667 C15.5697877,21.8666667 15.4773801,21.7740139 15.4773801,21.6597187 L15.4773801,21.6597187 L15.4773801,13.3864366 C15.4773801,13.2721828 15.5697877,13.17953 15.6838315,13.17953 L15.6838315,13.17953 L18.1446919,13.17953 C18.2587357,13.17953 18.3511434,13.2721828 18.3511434,13.3864366 L18.3511434,13.3864366 L18.3511434,13.9237729 C18.8138837,13.4185485 19.5768045,12.9739063 20.6088555,12.9739063 Z M14.0728535,13.1795218 C14.1868973,13.1795218 14.279305,13.2721745 14.279305,13.3864283 L14.279305,13.3864283 L14.279305,21.6597105 C14.279305,21.7740056 14.1868973,21.866617 14.0728535,21.866617 L14.0728535,21.866617 L11.5032345,21.866617 C11.3891907,21.866617 11.296783,21.7740056 11.296783,21.6597105 L11.296783,21.6597105 L11.296783,13.3864283 C11.296783,13.2721745 11.3891907,13.1795218 11.5032345,13.1795218 L11.5032345,13.1795218 Z M12.7889606,9.06666667 C13.7231949,9.06666667 14.4832666,9.8281655 14.4832253,10.7641693 C14.4832253,11.7005455 13.7231949,12.4623754 12.7889606,12.4623754 C11.8539832,12.4623754 11.0933333,11.7005869 11.0933333,10.7641693 C11.0933333,9.8281655 11.8539832,9.06666667 12.7889606,9.06666667 Z" transform="translate(-1287.000000, -4501.000000) translate(0.000000, 4136.000000) translate(131.000000, 356.000000) translate(1145.000000, 0.000000)" fill="currentColor" fill-rule="evenodd"/>
</svg>
