<svg viewBox="0 0 16 13" xmlns:xlink="http://www.w3.org/1999/xlink">
  <path d="M24.8205128,11.6486564 C24.2346667,11.905641 23.6104205,12.0759795 22.9595897,12.1586872 C23.6291282,11.7589333 24.1401436,11.1307487 24.3803897,10.3735795 C23.7561436,10.7457641 23.0669128,11.0086564 22.3323897,11.1553641 C21.7396513,10.5242256 20.8948513,10.1333333 19.9732513,10.1333333 C18.1851897,10.1333333 16.7456821,11.5846564 16.7456821,13.3638564 C16.7456821,13.6198564 16.7673436,13.8660103 16.8205128,14.1003487 C14.1354667,13.9693949 11.7595897,12.6825026 10.1635282,10.7221333 C9.88488205,11.2055795 9.7214359,11.7589333 9.7214359,12.3546256 C9.7214359,13.4731487 10.2974359,14.4646564 11.1560205,15.0386872 C10.6371282,15.028841 10.1280821,14.8781949 9.69682051,14.6409026 L9.69682051,14.6763487 C9.69682051,16.2458256 10.8163282,17.5494564 12.2843897,17.8497641 C12.0214974,17.921641 11.7349744,17.9561026 11.4376205,17.9561026 C11.2308513,17.9561026 11.0221128,17.9442872 10.8261744,17.9009641 C11.2446359,19.1799795 12.4320821,20.1202872 13.8440205,20.1508103 C12.7451897,21.0103795 11.3499897,21.5282872 9.83958974,21.5282872 C9.57472821,21.5282872 9.32069744,21.5164718 9.06666667,21.4839795 C10.4973128,22.4065641 12.1928205,22.9333333 14.0212513,22.9333333 C19.9643897,22.9333333 23.2136205,18.0102564 23.2136205,13.7429333 C23.2136205,13.6001641 23.2086974,13.4623179 23.2018051,13.3254564 C23.8427897,12.8705641 24.3813744,12.302441 24.8205128,11.6486564" transform="translate(-1241.000000, -4502.000000) translate(0.000000, 4136.000000) translate(131.000000, 356.000000) translate(1101.000000, 0.000000)" fill="currentColor" fill-rule="evenodd"/>
</svg>
